HIERARCHY
ROOT Hips
{
  OFFSET 0.142454 103.394 1.42217
  CHANNELS 6 Xposition Yposition Zposition Zrotation Xrotation Yrotation
  JOINT Spine
  {
    OFFSET 0 10.1816 0.1315
    CHANNELS 6 Xposition Yposition Zposition Zrotation Xrotation Yrotation
    JOINT Spine1
    {
      OFFSET 0 10.0835 -1.0008
      CHANNELS 6 Xposition Yposition Zposition Zrotation Xrotation Yrotation
      JOINT Spine2
      {
        OFFSET 0 9.1 -1.3734
        CHANNELS 6 Xposition Yposition Zposition Zrotation Xrotation Yrotation
        JOINT Neck
        {
          OFFSET 0 16.6717 -2.5162
          CHANNELS 6 Xposition Yposition Zposition Zrotation Xrotation Yrotation
          JOINT Head
          {
            OFFSET 0 9.6179 1.685
            CHANNELS 6 Xposition Yposition Zposition Zrotation Xrotation Yrotation
            JOINT HeadTop_End
            {
              OFFSET 0 17.8152 2.585
              CHANNELS 6 Xposition Yposition Zposition Zrotation Xrotation Yrotation
              End Site
              {
                OFFSET 0 0 0
              }
            }
            JOINT LeftEye
            {
              OFFSET 3.0676 6.4095 9.2836
              CHANNELS 6 Xposition Yposition Zposition Zrotation Xrotation Yrotation
              End Site
              {
                OFFSET 0 0 0
              }
            }
            JOINT RightEye
            {
              OFFSET -3.0676 6.4095 9.2835
              CHANNELS 6 Xposition Yposition Zposition Zrotation Xrotation Yrotation
              End Site
              {
                OFFSET 0 0 0
              }
            }
          }
        }
        JOINT LeftShoulder
        {
          OFFSET 4.5704 10.946 -2.628
          CHANNELS 6 Xposition Yposition Zposition Zrotation Xrotation Yrotation
          JOINT LeftArm
          {
            OFFSET 10.5924 -0.5246 -2.2321
            CHANNELS 6 Xposition Yposition Zposition Zrotation Xrotation Yrotation
            JOINT LeftForeArm
            {
              OFFSET 27.8415 -0.0001 0
              CHANNELS 6 Xposition Yposition Zposition Zrotation Xrotation Yrotation
              JOINT LeftHand
              {
                OFFSET 28.3288 0 0
                CHANNELS 6 Xposition Yposition Zposition Zrotation Xrotation Yrotation
                JOINT LeftHandThumb1
                {
                  OFFSET 2.4661 -1.575 2.6824
                  CHANNELS 6 Xposition Yposition Zposition Zrotation Xrotation Yrotation
                  JOINT LeftHandThumb2
                  {
                    OFFSET 3.2298 -1.8647 1.8647
                    CHANNELS 6 Xposition Yposition Zposition Zrotation Xrotation Yrotation
                    JOINT LeftHandThumb3
                    {
                      OFFSET 2.6526 -1.5315 1.5315
                      CHANNELS 6 Xposition Yposition Zposition Zrotation Xrotation Yrotation
                      End Site
                      {
                        OFFSET 1.9546 -1.1285 1.1285
                      }
                    }
                  }
                }
                JOINT LeftHandIndex1
                {
                  OFFSET 9.1093 -0.5171 2.2601
                  CHANNELS 6 Xposition Yposition Zposition Zrotation Xrotation Yrotation
                  JOINT LeftHandIndex2
                  {
                    OFFSET 3.6764 0 0
                    CHANNELS 6 Xposition Yposition Zposition Zrotation Xrotation Yrotation
                    JOINT LeftHandIndex3
                    {
                      OFFSET 2.8831 0 0
                      CHANNELS 6 Xposition Yposition Zposition Zrotation Xrotation Yrotation
                      End Site
                      {
                        OFFSET 2.3927 0 0
                      }
                    }
                  }
                }
                JOINT LeftHandMiddle1
                {
                  OFFSET 9.5334 0 0
                  CHANNELS 6 Xposition Yposition Zposition Zrotation Xrotation Yrotation
                  JOINT LeftHandMiddle2
                  {
                    OFFSET 3.6982 0 0
                    CHANNELS 6 Xposition Yposition Zposition Zrotation Xrotation Yrotation
                    JOINT LeftHandMiddle3
                    {
                      OFFSET 2.9509 0 0
                      CHANNELS 6 Xposition Yposition Zposition Zrotation Xrotation Yrotation
                      End Site
                      {
                        OFFSET 2.8339 0 0
                      }
                    }
                  }
                }
                JOINT LeftHandRing1
                {
                  OFFSET 9.1045 -0.0439 -1.8651
                  CHANNELS 6 Xposition Yposition Zposition Zrotation Xrotation Yrotation
                  JOINT LeftHandRing2
                  {
                    OFFSET 3.154 0 0
                    CHANNELS 6 Xposition Yposition Zposition Zrotation Xrotation Yrotation
                    JOINT LeftHandRing3
                    {
                      OFFSET 2.9377 0 0
                      CHANNELS 6 Xposition Yposition Zposition Zrotation Xrotation Yrotation
                      End Site
                      {
                        OFFSET 2.6475 0 0
                      }
                    }
                  }
                }
                JOINT LeftHandPinky1
                {
                  OFFSET 8.0778 -0.4887 -3.8061
                  CHANNELS 6 Xposition Yposition Zposition Zrotation Xrotation Yrotation
                  JOINT LeftHandPinky2
                  {
                    OFFSET 3.6 0 0
                    CHANNELS 6 Xposition Yposition Zposition Zrotation Xrotation Yrotation
                    JOINT LeftHandPinky3
                    {
                      OFFSET 2.1142 0 0
                      CHANNELS 6 Xposition Yposition Zposition Zrotation Xrotation Yrotation
                      End Site
                      {
                        OFFSET 1.9757 0 0
                      }
                    }
                  }
                }
              }
            }
          }
        }
        JOINT RightShoulder
        {
          OFFSET -4.57 10.9462 -2.628
          CHANNELS 6 Xposition Yposition Zposition Zrotation Xrotation Yrotation
          JOINT RightArm
          {
            OFFSET -10.5928 -0.5248 -2.2321
            CHANNELS 6 Xposition Yposition Zposition Zrotation Xrotation Yrotation
            JOINT RightForeArm
            {
              OFFSET -27.8415 0 0
              CHANNELS 6 Xposition Yposition Zposition Zrotation Xrotation Yrotation
              JOINT RightHand
              {
                OFFSET -28.3288 0 0.0001
                CHANNELS 6 Xposition Yposition Zposition Zrotation Xrotation Yrotation
                JOINT RightHandPinky1
                {
                  OFFSET -8.0767 -0.4885 -3.806
                  CHANNELS 6 Xposition Yposition Zposition Zrotation Xrotation Yrotation
                  JOINT RightHandPinky2
                  {
                    OFFSET -3.6 0 0.0001
                    CHANNELS 6 Xposition Yposition Zposition Zrotation Xrotation Yrotation
                    JOINT RightHandPinky3
                    {
                      OFFSET -2.1142 0 0
                      CHANNELS 6 Xposition Yposition Zposition Zrotation Xrotation Yrotation
                      End Site
                      {
                        OFFSET -1.9757 0 0
                      }
                    }
                  }
                }
                JOINT RightHandRing1
                {
                  OFFSET -9.1036 -0.0439 -1.8651
                  CHANNELS 6 Xposition Yposition Zposition Zrotation Xrotation Yrotation
                  JOINT RightHandRing2
                  {
                    OFFSET -3.154 0 0
                    CHANNELS 6 Xposition Yposition Zposition Zrotation Xrotation Yrotation
                    JOINT RightHandRing3
                    {
                      OFFSET -2.9377 0 0
                      CHANNELS 6 Xposition Yposition Zposition Zrotation Xrotation Yrotation
                      End Site
                      {
                        OFFSET -2.6475 0 0
                      }
                    }
                  }
                }
                JOINT RightHandMiddle1
                {
                  OFFSET -9.5325 0 0
                  CHANNELS 6 Xposition Yposition Zposition Zrotation Xrotation Yrotation
                  JOINT RightHandMiddle2
                  {
                    OFFSET -3.6982 0 0
                    CHANNELS 6 Xposition Yposition Zposition Zrotation Xrotation Yrotation
                    JOINT RightHandMiddle3
                    {
                      OFFSET -2.9509 0 0
                      CHANNELS 6 Xposition Yposition Zposition Zrotation Xrotation Yrotation
                      End Site
                      {
                        OFFSET -2.8339 0 0.0001
                      }
                    }
                  }
                }
                JOINT RightHandIndex1
                {
                  OFFSET -9.1083 -0.5168 2.2601
                  CHANNELS 6 Xposition Yposition Zposition Zrotation Xrotation Yrotation
                  JOINT RightHandIndex2
                  {
                    OFFSET -3.6764 0 0
                    CHANNELS 6 Xposition Yposition Zposition Zrotation Xrotation Yrotation
                    JOINT RightHandIndex3
                    {
                      OFFSET -2.8831 0 0
                      CHANNELS 6 Xposition Yposition Zposition Zrotation Xrotation Yrotation
                      End Site
                      {
                        OFFSET -2.3927 0 0
                      }
                    }
                  }
                }
                JOINT RightHandThumb1
                {
                  OFFSET -2.4648 -1.5727 2.6826
                  CHANNELS 6 Xposition Yposition Zposition Zrotation Xrotation Yrotation
                  JOINT RightHandThumb2
                  {
                    OFFSET -3.2298 -1.8647 1.8647
                    CHANNELS 6 Xposition Yposition Zposition Zrotation Xrotation Yrotation
                    JOINT RightHandThumb3
                    {
                      OFFSET -2.6526 -1.5314 1.5314
                      CHANNELS 6 Xposition Yposition Zposition Zrotation Xrotation Yrotation
                      End Site
                      {
                        OFFSET -1.9546 -1.1285 1.1285
                      }
                    }
                  }
                }
              }
            }
          }
        }
      }
    }
  }
  JOINT LeftUpLeg
  {
    OFFSET 8.2078 -6.7517 -1.5996
    CHANNELS 6 Xposition Yposition Zposition Zrotation Xrotation Yrotation
    JOINT LeftLeg
    {
      OFFSET 0 -44.3705 0.2846
      CHANNELS 6 Xposition Yposition Zposition Zrotation Xrotation Yrotation
      JOINT LeftFoot
      {
        OFFSET 0 -44.4279 -2.9822
        CHANNELS 6 Xposition Yposition Zposition Zrotation Xrotation Yrotation
        JOINT LeftToeBase
        {
          OFFSET 0 -8.7287 10.7106
          CHANNELS 6 Xposition Yposition Zposition Zrotation Xrotation Yrotation
          End Site
          {
            OFFSET 0 -0.0007 9.2781
          }
        }
      }
    }
  }
  JOINT RightUpLeg
  {
    OFFSET -8.2078 -6.7517 -1.5996
    CHANNELS 6 Xposition Yposition Zposition Zrotation Xrotation Yrotation
    JOINT RightLeg
    {
      OFFSET 0 -44.3705 0.2862
      CHANNELS 6 Xposition Yposition Zposition Zrotation Xrotation Yrotation
      JOINT RightFoot
      {
        OFFSET 0 -44.4277 -2.9838
        CHANNELS 6 Xposition Yposition Zposition Zrotation Xrotation Yrotation
        JOINT RightToeBase
        {
          OFFSET 0 -8.7287 10.7106
          CHANNELS 6 Xposition Yposition Zposition Zrotation Xrotation Yrotation
          End Site
          {
            OFFSET 0 -0.0007 9.2781
          }
        }
      }
    }
  }
}
MOTION
Frames:	4
Frame Time:	0.0333333
0.142454 103.394 1.42217 -3.74506 -3.40385 -5.45257 -8.88178e-016 10.1816 0.1315 2.72602 3.36323 1.37959 2.22045e-016 10.0835 -1.0008 1.55326 1.15453 0.297972 0 9.1 -1.3734 1.55121 1.13294 0.325645 0 16.6717 -2.5162 0.466139 5.62184 -0.122839 0 9.6179 1.685 -0.0850661 -7.55315 1.36355 1.77636e-015 17.8152 2.585 1.12593e-016 -2.48481e-017 -3.97569e-016 3.0676 6.4095 9.2836 1.12593e-016 -2.48481e-017 -3.97569e-016 -3.0676 6.4095 9.2835 1.12593e-016 -2.48481e-017 -3.97569e-016 4.5704 10.946 -2.628 -11.7821 4.69091 -16.854 10.5924 -0.5246 -2.2321 -69.8749 20.0977 -3.28805 27.8415 -0.0001 0 -0.000204039 3.34339e-006 -1.45391 28.3288 -3.55271e-015 0 -7.37151 -32.8378 -5.38307 2.4661 -1.575 2.6824 4.8422 -0.491674 2.20003 3.2298 -1.8647 1.8647 16.2266 18.6485 21.1137 2.6526 -1.5315 1.5315 9.25662 -13.0805 5.70314 9.1093 -0.5171 2.2601 -7.58941 0.148154 -0.958799 3.6764 -1.77636e-015 0 -17.3692 -0.266605 1.74527 2.8831 -3.55271e-015 0 -8.03835 -0.0574359 0.817425 9.5334 -3.55271e-015 -1.33227e-015 -15.6841 -0.793629 2.53471 3.6982 -4.44089e-016 -4.44089e-016 -17.3978 -0.267479 1.74806 2.9509 3.55271e-015 0 -18.4042 -0.299051 1.84581 9.1045 -0.0439 -1.8651 -21.0965 -1.18293 3.44035 3.154 -1.77636e-015 0 -20.8973 -0.384627 2.08547 2.9377 0 8.88178e-016 -17.8595 -0.281749 1.79298 8.0778 -0.4887 -3.8061 -27.0047 -1.70611 5.35768 3.6 3.55271e-015 0 -17.3985 -0.267497 1.74813 2.1142 -7.10543e-015 0 -16.4993 -0.240743 1.66033 -4.57 10.9462 -2.628 14.227 5.00513 14.571 -10.5928 -0.5248 -2.2321 61.3286 30.2115 2.56649 -27.8415 3.55271e-015 -3.55271e-015 -1.00501e-005 -2.96524e-006 6.68958 -28.3288 3.55271e-015 0.0001 7.23399 -20.0623 1.96934 -8.0767 -0.4885 -3.806 26.3809 -1.50281 -4.69817 -3.6 -3.55271e-015 0.0001 17.4315 -0.212672 -1.38879 -2.1142 7.10543e-015 -1.77636e-015 16.5284 -0.191783 -1.32034 -9.1036 -0.0439 -1.8651 20.438 -1.04476 -2.88588 -3.154 -8.88178e-016 0 20.9403 -0.306565 -1.65878 -2.9377 7.10543e-015 0 17.8921 -0.224472 -1.42587 -9.5325 3.55271e-015 0 14.9896 -0.701246 -2.08924 -3.6982 -3.88578e-016 -8.88178e-016 17.4331 -0.21319 -1.39043 -2.9509 7.10543e-015 -8.88178e-016 18.4416 -0.238352 -1.47019 -9.1083 -0.5168 2.2601 6.82611 0.187879 1.25421 -3.6764 0 4.44089e-016 17.4084 -0.212589 -1.38853 -2.8831 -1.77636e-015 0 8.05889 -0.0458272 -0.650588 -2.4648 -1.5727 2.6826 -4.22761 -1.65813 -0.283792 -3.2298 -1.8647 1.8647 -14.8689 20.2569 -25.589 -2.6526 -1.5314 1.5314 -13.0988 -14.3797 -6.9591 8.2078 -6.7517 -1.5996 10.0902 -8.01908 16.3901 -1.77636e-015 -44.3705 0.2846 4.26395 12.3056 1.12738 -3.55271e-015 -44.4279 -2.9822 -7.11186 1.18747 0.669396 -1.77636e-015 -8.7287 10.7106 -1.2525e-006 -4.93314 8.29934e-006 -8.2078 -6.7517 -1.5996 3.44206 -0.0238981 -10.4019 0 -44.3705 0.2862 -3.26116 7.94477 -9.31698 0 -44.4277 -2.9838 3.20686 -3.77364 -1.43855 0 -8.7287 10.7106 1.36578e-006 -7.27348 1.54386e-005 
0.382929 101.717 0.910356 -3.07564 -3.28886 -5.47892 -8.88178e-016 10.1816 0.1315 2.41129 5.63366 1.22906 0 10.0835 -1.0008 1.32933 0.294022 0.284195 0 9.1 -1.3734 1.32469 0.274397 0.308286 -8.88178e-016 16.6717 -2.5162 0.340299 5.89033 0.12072 0 9.6179 1.685 -0.138982 -6.75846 2.00294 8.88178e-016 17.8152 2.585 3.85145e-016 3.97569e-016 -0 3.0676 6.4095 9.2836 3.85145e-016 3.97569e-016 -0 -3.0676 6.4095 9.2835 3.85145e-016 3.97569e-016 -0 4.5704 10.946 -2.628 -12.144 3.78382 -12.9243 10.5924 -0.5246 -2.2321 -68.3955 19.3707 -4.45476 27.8415 -0.0001 0 -0.000194414 -4.71653e-006 -4.60627 28.3288 0 3.55271e-015 -4.68482 -24.7542 -6.7061 2.4661 -1.575 2.6824 4.08641 -0.269414 1.93998 3.2298 -1.8647 1.8647 16.8474 18.735 20.8598 2.6526 -1.5315 1.5315 9.49178 -13.0153 6.22325 9.1093 -0.5171 2.2601 -7.73314 0.162611 -1.33315 3.6764 0 0 -18.5963 -0.30527 1.86441 2.8831 1.77636e-015 1.77636e-015 -9.03743 -0.072572 0.918228 9.5334 0 1.77636e-015 -15.858 -0.805423 2.55008 3.6982 8.88178e-016 -1.77636e-015 -18.5919 -0.305124 1.86397 2.9509 0 -8.88178e-016 -19.3015 -0.328652 1.93249 9.1045 -0.0439 -1.8651 -21.2449 -1.19455 3.73187 3.154 4.21885e-015 -8.88178e-016 -22.0859 -0.429085 2.19838 2.9377 -7.10543e-015 2.22045e-016 -18.7583 -0.31057 1.88008 8.0778 -0.4887 -3.8061 -27.1013 -1.71481 5.99343 3.6 3.55271e-015 -1.11022e-015 -18.5924 -0.305144 1.86403 2.1142 0 -4.44089e-016 -17.3966 -0.267439 1.74794 -4.57 10.9462 -2.628 14.1532 4.02799 11.1824 -10.5928 -0.5248 -2.2321 60.6735 29.5338 4.53433 -27.8415 -3.55271e-015 0 -7.3969e-006 -9.90049e-007 7.85638 -28.3288 7.10543e-015 0.0001 5.87536 -15.1434 6.60313 -8.0767 -0.4885 -3.806 27.2685 -1.57489 -6.00298 -3.6 0 0.0001 17.3183 -0.209934 -1.38003 -2.1142 -7.10543e-015 1.77636e-015 16.921 -0.200935 -1.35079 -9.1036 -0.0439 -1.8651 21.3858 -1.10826 -3.5005 -3.154 -8.88178e-016 2.22045e-016 20.8274 -0.303295 -1.65023 -2.9377 7.10543e-015 1.33227e-015 18.2846 -0.234345 -1.4561 -9.5325 -7.10543e-015 1.77636e-015 15.9791 -0.760934 -2.15707 -3.6982 2.44249e-015 0 17.3204 -0.210461 -1.38173 -2.9509 1.06581e-014 -4.44089e-016 18.8341 -0.248514 -1.50032 -9.1083 -0.5168 2.2601 7.87541 0.21037 1.88859 -3.6764 3.55271e-015 -1.77636e-015 17.2952 -0.209857 -1.37977 -2.8831 -3.55271e-015 -1.77636e-015 8.45149 -0.0503899 -0.682059 -2.4648 -1.5727 2.6826 -3.68478 -1.56662 -0.197856 -3.2298 -1.8647 1.8647 -14.8688 20.2569 -25.589 -2.6526 -1.5314 1.5314 -13.2109 -14.1292 -7.55259 8.2078 -6.7517 -1.5996 10.8579 -13.6418 16.3985 0 -44.3705 0.2846 4.41324 22.7571 0.68031 3.55271e-015 -44.4279 -2.9822 -7.11756 -3.5953 0.39506 -3.55271e-015 -8.7287 10.7106 -1.58885e-006 -4.9781 -2.48818e-006 -8.2078 -6.7517 -1.5996 1.51126 -7.48314 -10.766 1.77636e-015 -44.3705 0.2862 -3.87984 21.9341 -6.29004 1.77636e-015 -44.4277 -2.9838 4.21073 -10.2599 -2.80737 0 -8.7287 10.7106 1.07916e-006 -7.50543 7.68101e-006 
0.664412 99.9607 -0.0820731 -2.19983 -2.86594 -5.7467 -4.44089e-016 10.1816 0.1315 1.84649 8.69902 0.998406 2.22045e-016 10.0835 -1.0008 1.06129 -0.553999 0.260385 4.44089e-016 9.1 -1.3734 1.05446 -0.57154 0.278194 8.88178e-016 16.6717 -2.5162 0.249275 6.13226 0.394242 -8.88178e-016 9.6179 1.685 -0.299329 -6.1457 2.82583 0 17.8152 2.585 -3.72721e-016 1.59028e-015 -1.98785e-016 3.0676 6.4095 9.2836 -3.72721e-016 1.59028e-015 -1.98785e-016 -3.0676 6.4095 9.2835 -3.72721e-016 1.59028e-015 -1.98785e-016 4.5704 10.946 -2.628 -12.2977 2.75343 -8.62201 10.5924 -0.5246 -2.2321 -66.566 17.6127 -6.4699 27.8415 -0.0001 0 -0.000194346 -3.9613e-006 -6.64294 28.3288 0 1.77636e-015 -1.17769 -11.9943 -9.22256 2.4661 -1.575 2.6824 2.08153 0.350731 1.26287 3.2298 -1.8647 1.8647 18.5055 18.9513 20.1742 2.6526 -1.5315 1.5315 10.1206 -12.8266 7.60376 9.1093 -0.5171 2.2601 -8.20591 0.220103 -2.3109 3.6764 0 -3.55271e-015 -21.8671 -0.420729 2.17765 2.8831 4.44089e-015 0 -11.7003 -0.121462 1.18549 9.5334 0 1.77636e-015 -16.4127 -0.843345 2.5989 3.6982 0 0 -21.7742 -0.417196 2.16885 2.9509 -1.06581e-014 3.55271e-015 -21.6931 -0.41413 2.16117 9.1045 -0.0439 -1.8651 -21.7315 -1.23197 4.51073 3.154 -8.88178e-016 0 -25.2553 -0.558981 2.49473 2.9377 0 -1.77636e-015 -21.1535 -0.39401 2.10987 8.0778 -0.4887 -3.8061 -27.4552 -1.74375 7.68295 3.6 -2.22045e-015 1.33227e-015 -21.7745 -0.417207 2.16888 2.1142 3.55271e-015 4.44089e-016 -19.7883 -0.345272 1.97933 -4.57 10.9462 -2.628 13.8371 2.94388 7.57925 -10.5928 -0.5248 -2.2321 60.0142 27.7939 9.71222 -27.8415 0 0 5.65667e-007 -8.55352e-006 4.3342 -28.3288 3.55271e-015 0.0001 2.97332 -7.4957 12.6779 -8.0767 -0.4885 -3.806 29.6392 -1.76089 -9.30819 -3.6 0 0.0001 17.201 -0.207124 -1.37097 -2.1142 -7.10543e-015 8.88178e-016 17.9633 -0.226245 -1.43135 -9.1036 -0.0439 -1.8651 23.9062 -1.27969 -5.06062 -3.154 -3.10862e-015 -8.88178e-016 20.7107 -0.299951 -1.64138 -2.9377 -3.55271e-015 1.77636e-015 19.3269 -0.261564 -1.53604 -9.5325 0 -3.55271e-015 18.6063 -0.925007 -2.33406 -3.6982 -4.44089e-016 0 17.2044 -0.20767 -1.37273 -2.9509 -3.55271e-015 0 19.8765 -0.276498 -1.58 -9.1083 -0.5168 2.2601 10.6548 0.265097 3.48293 -3.6764 0 0 17.1779 -0.207033 -1.3707 -2.8831 -1.77636e-015 0 9.49402 -0.0635665 -0.765465 -2.4648 -1.5727 2.6826 -2.24758 -1.30991 0.0240981 -3.2298 -1.8647 1.8647 -14.8689 20.2569 -25.589 -2.6526 -1.5314 1.5314 -13.495 -13.4588 -9.12315 8.2078 -6.7517 -1.5996 10.8812 -18.5524 15.7512 -3.55271e-015 -44.3705 0.2846 4.70737 30.3482 1.60208 -3.55271e-015 -44.4279 -2.9822 -7.89638 -6.48434 -0.0319448 0 -8.7287 10.7106 7.30909e-007 -4.85803 3.28288e-006 -8.2078 -6.7517 -1.5996 -0.0304547 -13.3052 -10.5866 0 -44.3705 0.2862 -4.73702 31.142 -3.46174 0 -44.4277 -2.9838 4.4744 -14.1143 -4.39356 -1.77636e-015 -8.7287 10.7106 -3.43664e-006 -7.63488 -1.0716e-005 
0.982301 97.9245 -1.64986 -0.925842 -1.56331 -6.17631 1.11022e-016 10.1816 0.1315 0.855706 12.0642 0.774982 2.22045e-016 10.0835 -1.0008 0.805144 -1.14554 0.232388 0 9.1 -1.3734 0.797175 -1.16099 0.241852 0 16.6717 -2.5162 0.142465 6.27547 0.691624 -8.88178e-016 9.6179 1.685 -0.592365 -5.9981 3.73171 0 17.8152 2.585 -6.58474e-016 -6.36111e-015 9.93923e-017 3.0676 6.4095 9.2836 -6.58474e-016 -6.36111e-015 9.93923e-017 -3.0676 6.4095 9.2835 -6.58474e-016 -6.36111e-015 9.93923e-017 4.5704 10.946 -2.628 -11.9898 1.78232 -4.68808 10.5924 -0.5246 -2.2321 -64.1509 15.1659 -7.09657 27.8415 -0.0001 0 -0.000198391 -6.62365e-006 -12.7098 28.3288 0 -8.88178e-016 3.02284 4.55781 -11.6125 2.4661 -1.575 2.6824 -0.778976 1.31818 0.328437 3.2298 -1.8647 1.8647 20.9019 19.2264 19.1649 2.6526 -1.5315 1.5315 11.0302 -12.5168 9.57715 9.1093 -0.5171 2.2601 -9.06919 0.341589 -3.67809 3.6764 0 3.55271e-015 -26.5781 -0.618021 2.61622 2.8831 -5.32907e-015 1.77636e-015 -15.5364 -0.213624 1.56588 9.5334 -7.10543e-015 -3.55271e-015 -17.399 -0.911951 2.68511 3.6982 3.55271e-015 0 -26.3582 -0.608008 2.59613 2.9509 -3.55271e-015 8.88178e-016 -25.1381 -0.553892 2.4839 9.1045 -0.0439 -1.8651 -22.6193 -1.29928 5.63611 3.154 3.55271e-015 0 -29.8236 -0.774639 2.90833 2.9377 7.10543e-015 -8.88178e-016 -24.6027 -0.530899 2.4343 8.0778 -0.4887 -3.8061 -28.1638 -1.79613 10.1062 3.6 1.77636e-015 -2.66454e-015 -26.3579 -0.607987 2.59609 2.1142 3.55271e-015 -1.77636e-015 -23.2336 -0.474227 2.30651 -4.57 10.9462 -2.628 13.1708 1.93076 4.33579 -10.5928 -0.5248 -2.2321 58.8315 25.2805 10.1142 -27.8415 0 0 -1.49234e-005 -2.72544e-006 12.7821 -28.3288 0 0.0001 -2.03692 2.5597 12.8783 -8.0767 -0.4885 -3.806 33.0655 -2.01758 -13.7114 -3.6 3.55271e-015 0.0001 17.4113 -0.212181 -1.38722 -2.1142 3.55271e-015 -2.66454e-015 19.4569 -0.265064 -1.54597 -9.1036 -0.0439 -1.8651 27.525 -1.53284 -7.14524 -3.154 4.44089e-016 1.77636e-015 20.9218 -0.30603 -1.65736 -2.9377 -3.55271e-015 -1.33227e-015 20.8205 -0.303103 -1.6497 -9.5325 0 3.55271e-015 22.37 -1.17366 -2.57909 -3.6982 0 -3.55271e-015 17.4164 -0.212779 -1.38914 -2.9509 -3.55271e-015 0 21.3701 -0.31913 -1.69328 -9.1083 -0.5168 2.2601 14.6228 0.330064 5.58138 -3.6764 0 -3.55271e-015 17.3882 -0.212107 -1.38696 -2.8831 3.55271e-015 0 10.988 -0.0850728 -0.884549 -2.4648 -1.5727 2.6826 -0.199614 -0.907814 0.325156 -3.2298 -1.8647 1.8647 -14.8689 20.2569 -25.589 -2.6526 -1.5314 1.5314 -13.8677 -12.4854 -11.3604 8.2078 -6.7517 -1.5996 10.2513 -24.5243 14.415 0 -44.3705 0.2846 5.03597 37.1484 3.2615 3.55271e-015 -44.4279 -2.9822 -8.91961 -8.49994 -0.158303 0 -8.7287 10.7106 -9.10018e-007 -5.15752 -1.55229e-008 -8.2078 -6.7517 -1.5996 -1.47583 -20.1465 -9.83332 0 -44.3705 0.2862 -5.96422 39.4054 -0.710343 0 -44.4277 -2.9838 4.37637 -17.0545 -6.21986 0 -8.7287 10.7106 3.17405e-007 -8.00671 -6.09857e-006 
